<svg width="7" height="6" viewBox="0 0 7 6" fill="none" xmlns="http://www.w3.org/2000/svg">
<path d="M0.711569 5.14795H1.48222e-05V7.01285e-05H3.1294V0.660799H0.711569V2.31625H2.90432V2.98424H0.711569V5.14795ZM3.05492 3.61593V3.28193L3.76648 3.1222V3.60867C3.76648 3.93782 3.84635 4.18469 4.00608 4.34927C4.16582 4.51384 4.38122 4.59613 4.65229 4.59613C4.91368 4.59613 5.1194 4.51384 5.26945 4.34927C5.41951 4.18469 5.49454 3.95476 5.49454 3.65949V7.01285e-05H6.20609V3.60867C6.20609 4.07336 6.0633 4.46544 5.77771 4.78491C5.49696 5.09954 5.12424 5.25686 4.65955 5.25686C4.16098 5.25686 3.7689 5.10923 3.48331 4.81395C3.19772 4.51384 3.05492 4.1145 3.05492 3.61593Z" fill="white"/>
</svg>
